<svg width="16" height="16" viewBox="0 0 16 16" fill="none" xmlns="http://www.w3.org/2000/svg">
<g clip-path="url(#clip0_226_4818)">
<path d="M12.62 3.83325L12.6201 3.83325C12.8501 3.83321 13.0771 3.88609 13.2834 3.98779C13.4873 4.08825 13.6656 4.23368 13.8049 4.41309L13.8722 4.50761L14.5813 5.57127L14.5814 5.57136C14.7232 5.78402 14.8083 6.02936 14.8287 6.28407L14.8333 6.41292V10.6666V10.6667C14.8334 10.877 14.754 11.0795 14.611 11.2336C14.4702 11.3855 14.2779 11.4794 14.0717 11.4973L13.9917 11.4999H13.8867H13.5331L13.4153 11.8333C13.3144 12.1184 13.1298 12.3665 12.8856 12.5449C12.6413 12.7233 12.3489 12.8238 12.0465 12.8331C11.7442 12.8424 11.4461 12.7601 11.1914 12.597C10.9382 12.435 10.7396 12.2007 10.6212 11.9246L10.5783 11.8161L10.4533 11.4999H10.1133H5.886H5.5326L5.41466 11.8331C5.31376 12.1181 5.12912 12.366 4.88492 12.5443C4.64073 12.7225 4.34838 12.8229 4.04617 12.8322C3.74396 12.8415 3.44599 12.7593 3.1913 12.5964C2.93826 12.4345 2.73967 12.2004 2.62116 11.9245L2.57831 11.8161L2.45331 11.4999H2.11333H2H1.99984C1.7896 11.5 1.5871 11.4206 1.43294 11.2776C1.28104 11.1368 1.18713 10.9445 1.16933 10.7383L1.16666 10.6583V5.33325V5.33322C1.16664 4.95062 1.31283 4.58247 1.57531 4.30409C1.83618 4.02743 2.19232 3.86023 2.57164 3.83615L2.67377 3.83325L12.62 3.83325ZM14.5 7.33325V6.40403C14.5 6.40399 14.5 6.40396 14.5 6.40392C14.5 6.1735 14.4318 5.94824 14.304 5.75653L13.5908 4.68602L13.5906 4.68575C13.484 4.52602 13.3397 4.39506 13.1703 4.30449C13.001 4.21394 12.812 4.16657 12.62 4.16659C12.62 4.16659 12.6199 4.16659 12.6199 4.16659H12H11.5V4.66659V7.33325V7.83325H12H14H14.5V7.33325ZM4.5 4.66659V4.16659H4H2.66666H2.6666C2.38084 4.16662 2.10504 4.27153 1.8915 4.46142C1.67796 4.65131 1.54153 4.91296 1.5081 5.19675L1.50642 5.21103L1.50556 5.22539L1.50089 5.30339L1.5 5.31831V5.33325V6.66658V7.16658H2H4H4.5V6.66658V4.66659ZM7.83333 4.66659V4.16659H7.33333H5.33333H4.83333V4.66659V6.66658V7.16658H5.33333H7.33333H7.83333V6.66658V4.66659ZM11.1667 4.66659V4.16659H10.6667H8.66666H8.16666V4.66659V6.66658V7.16658H8.66666H10.6667H11.1667V6.66658V4.66659ZM12 10.1666C11.6906 10.1666 11.3938 10.2895 11.175 10.5083C10.9562 10.7271 10.8333 11.0238 10.8333 11.3333C10.8333 11.6427 10.9562 11.9394 11.175 12.1582C11.3938 12.377 11.6906 12.4999 12 12.4999C12.3094 12.4999 12.6062 12.377 12.825 12.1582C13.0437 11.9394 13.1667 11.6427 13.1667 11.3333C13.1667 11.0238 13.0437 10.7271 12.825 10.5083C12.6062 10.2895 12.3094 10.1666 12 10.1666ZM4 10.1666C3.69058 10.1666 3.39383 10.2895 3.17504 10.5083C2.95625 10.7271 2.83333 11.0238 2.83333 11.3333C2.83333 11.6427 2.95625 11.9394 3.17504 12.1582C3.39383 12.377 3.69058 12.4999 4 12.4999C4.30942 12.4999 4.60616 12.377 4.82496 12.1582C5.04375 11.9394 5.16666 11.6427 5.16666 11.3333C5.16666 11.0238 5.04375 10.7271 4.82496 10.5083C4.60616 10.2895 4.30942 10.1666 4 10.1666Z" fill="#1A73E9" stroke="#1967D3"/>
</g>
<defs>
<clipPath id="clip0_226_4818">
<rect width="16" height="16" fill="white"/>
</clipPath>
</defs>
</svg>
