<svg width="32" height="32" viewBox="0 0 32 32" fill="none" xmlns="http://www.w3.org/2000/svg">
<rect x="1" y="1" width="30" height="30" rx="15" fill="white" stroke="#1967D3" stroke-width="2"/>
<path d="M23.5 11.0176C23.5025 10.8959 23.4941 9.79675 22.4166 8.73841C21.3558 7.69675 20.2858 7.66675 20.1666 7.66675H11.83C11.6308 7.66675 10.5858 7.71925 9.57329 8.75175C8.52996 9.81508 8.49996 10.8826 8.49996 11.0001V13.5001H7.66663V16.0001H8.49996V21.0001C8.49996 21.6117 8.83829 22.1442 9.33329 22.4342V23.5001C9.33329 23.7211 9.42109 23.9331 9.57737 24.0893C9.73365 24.2456 9.94561 24.3334 10.1666 24.3334H11C11.221 24.3334 11.4329 24.2456 11.5892 24.0893C11.7455 23.9331 11.8333 23.7211 11.8333 23.5001V22.6667H20.1666V23.5001C20.1666 23.7211 20.2544 23.9331 20.4107 24.0893C20.567 24.2456 20.7789 24.3334 21 24.3334H21.8333C22.0543 24.3334 22.2663 24.2456 22.4225 24.0893C22.5788 23.9331 22.6666 23.7211 22.6666 23.5001V22.4359C22.9195 22.2909 23.1296 22.0819 23.2759 21.8298C23.4222 21.5777 23.4995 21.2915 23.5 21.0001V16.0001H24.3333V13.5001H23.5V11.0176ZM11.4166 21.0001C11.085 21 10.767 20.8681 10.5326 20.6335C10.2981 20.399 10.1665 20.0809 10.1666 19.7492C10.1667 19.4176 10.2986 19.0996 10.5332 18.8652C10.7677 18.6308 11.0858 18.4991 11.4175 18.4992C11.7491 18.4994 12.0671 18.6312 12.3015 18.8658C12.5359 19.1004 12.6676 19.4185 12.6675 19.7501C12.6673 20.0817 12.5355 20.3997 12.3009 20.6341C12.0663 20.8686 11.7483 21.0002 11.4166 21.0001ZM20.5833 21.0001C20.2517 21 19.9337 20.8681 19.6992 20.6335C19.4648 20.399 19.3332 20.0809 19.3333 19.7492C19.3334 19.4176 19.4652 19.0996 19.6998 18.8652C19.9344 18.6308 20.2525 18.4991 20.5841 18.4992C20.9158 18.4994 21.2338 18.6312 21.4682 18.8658C21.7026 19.1004 21.8342 19.4185 21.8341 19.7501C21.834 20.0817 21.7022 20.3997 21.4676 20.6341C21.233 20.8686 20.9149 21.0002 20.5833 21.0001ZM21.8333 16.8334H10.1596V11.0007C10.1596 10.4484 10.6073 10.0007 11.1596 10.0007H20.8333C21.3856 10.0007 21.8333 10.4484 21.8333 11.0007V16.8334Z" fill="#1967D3"/>
</svg>
