<?xml version="1.0" encoding="UTF-8"?>
<svg xmlns="http://www.w3.org/2000/svg" version="1.1" viewBox="0 0 16 16">
  <defs>
    <style>
      .cls-1 {
        fill: #f86262;
        stroke: #c42727;
      }

      .cls-2 {
        fill: #fff;
      }
    </style>
  </defs>
  <!-- Generator: Adobe Illustrator 28.6.0, SVG Export Plug-In . SVG Version: 1.2.0 Build 709)  -->
  <g>
    <g id="Layer_1">
      <circle class="cls-2" cx="8" cy="6.8" r="3.1"/>
      <path class="cls-1" d="M12.2,2.3h0c.6.6,1,1.2,1.3,2,.3.7.5,1.5.5,2.4s-.2,1.6-.5,2.4c-.3.7-.7,1.4-1.3,2h0s-4.2,4.3-4.2,4.3l-4.2-4.3h0c-.6-.6-1-1.2-1.3-2-.3-.7-.5-1.5-.5-2.4s.2-1.6.5-2.4c.3-.7.7-1.4,1.3-2h0c2.3-2.4,6.1-2.4,8.5,0ZM6.2,8.6h0c.5.5,1.1.8,1.8.8s1.3-.3,1.8-.8h0c.5-.5.7-1.2.7-1.8s-.3-1.3-.7-1.8h0c-.5-.5-1.1-.8-1.8-.8s-1.3.3-1.8.8h0c-.5.5-.7,1.2-.7,1.8s.3,1.3.7,1.8Z"/>
    </g>
  </g>
</svg>