<svg width="32" height="32" viewBox="0 0 32 32" fill="none" xmlns="http://www.w3.org/2000/svg">
<rect x="0.5" y="0.5" width="31" height="31" rx="5.5" fill="#1A73E9" stroke="#1967D3"/>
<path d="M25 10.021C25.003 9.875 24.993 8.556 23.7 7.286C22.427 6.036 21.143 6 21 6H10.996C10.757 6 9.503 6.063 8.288 7.302C7.036 8.578 7 9.859 7 10V13H6V16H7V22C7 22.734 7.406 23.373 8 23.721V25C8 25.2652 8.10536 25.5196 8.29289 25.7071C8.48043 25.8946 8.73478 26 9 26H10C10.2652 26 10.5196 25.8946 10.7071 25.7071C10.8946 25.5196 11 25.2652 11 25V24H21V25C21 25.2652 21.1054 25.5196 21.2929 25.7071C21.4804 25.8946 21.7348 26 22 26H23C23.2652 26 23.5196 25.8946 23.7071 25.7071C23.8946 25.5196 24 25.2652 24 25V23.723C24.3034 23.549 24.5556 23.2981 24.7311 22.9956C24.9067 22.6932 24.9994 22.3497 25 22V16H26V13H25V10.021ZM10.5 22C10.102 21.9999 9.72044 21.8417 9.43913 21.5602C9.15783 21.2787 8.99987 20.897 9 20.499C9.00013 20.101 9.15835 19.7194 9.43984 19.4381C9.72133 19.1568 10.103 18.9989 10.501 18.999C10.899 18.9991 11.2806 19.1573 11.5619 19.4388C11.8432 19.7203 12.0011 20.102 12.001 20.5C12.0009 20.898 11.8427 21.2796 11.5612 21.5609C11.2797 21.8422 10.898 22.0001 10.5 22ZM21.5 22C21.102 21.9999 20.7204 21.8417 20.4391 21.5602C20.1578 21.2787 19.9999 20.897 20 20.499C20.0001 20.101 20.1583 19.7194 20.4398 19.4381C20.7213 19.1568 21.103 18.9989 21.501 18.999C21.899 18.9991 22.2806 19.1573 22.5619 19.4388C22.8432 19.7203 23.0011 20.102 23.001 20.5C23.0009 20.898 22.8427 21.2796 22.5612 21.5609C22.2797 21.8422 21.898 22.0001 21.5 22ZM23 17H8.99161V9.80078C8.99161 9.2485 9.43932 8.80078 9.99161 8.80078H22C22.5523 8.80078 23 9.2485 23 9.80078V17Z" fill="white"/>
</svg>
